<?xml version="1.0" encoding="UTF-8" standalone="no"?>
<svg
   xmlns:dc="http://purl.org/dc/elements/1.1/"
   xmlns:cc="http://creativecommons.org/ns#"
   xmlns:rdf="http://www.w3.org/1999/02/22-rdf-syntax-ns#"
   xmlns:svg="http://www.w3.org/2000/svg"
   xmlns="http://www.w3.org/2000/svg"
   width="104.94974mm"
   height="15.079204mm"
   viewBox="0 0 104.94974 15.079204"
   version="1.1"
   id="svg8">
  <defs
     id="defs2" />
  <metadata
     id="metadata5">
    <rdf:RDF>
      <cc:Work
         rdf:about="">
        <dc:format>image/svg+xml</dc:format>
        <dc:type
           rdf:resource="http://purl.org/dc/dcmitype/StillImage" />
        <dc:title></dc:title>
      </cc:Work>
    </rdf:RDF>
  </metadata>
  <g
     id="layer1"
     transform="translate(-18.844785,-30.077762)"
     style="fill:#ffffff;fill-opacity:1">
    <path
       style="fill:#ffffff;stroke-width:0.264583;fill-opacity:1"
       id="path847"
       d="" />
    <path
       style="fill:#ffffff;stroke-width:0.264583;fill-opacity:1"
       d="m 19.260559,44.709304 c -0.228676,-0.22867 -0.415774,-0.52724 -0.415774,-0.66349 0,-0.13625 1.487507,-3.2209 3.305572,-6.8548 l 3.305572,-6.60707 0.666614,-0.16731 c 0.395901,-0.0994 0.836911,-0.026 1.085961,0.18072 0.657087,0.54533 6.756746,12.93096 6.666188,13.53599 -0.09996,0.66787 -0.791183,1.13116 -1.36127,0.9124 -0.234412,-0.09 -1.69421,-2.69736 -3.243995,-5.79425 l -2.817789,-5.6307 -2.640874,5.28912 c -1.45248,2.90902 -2.825288,5.49748 -3.050683,5.75215 -0.507357,0.57323 -0.959296,0.58747 -1.499522,0.0472 z m 19.354165,0.12571 c -0.629653,-0.36651 -6.857097,-12.84614 -6.754012,-13.53486 0.100137,-0.66903 0.791482,-1.13105 1.363805,-0.91143 0.235807,0.0905 1.649626,2.60975 3.141819,5.59836 1.492194,2.9886 2.803158,5.43383 2.913253,5.43383 0.110096,0 1.379858,-2.35712 2.821693,-5.23804 1.441835,-2.88093 2.805906,-5.39108 3.031273,-5.57811 0.518068,-0.42996 1.417677,-0.15824 1.623537,0.49037 0.19799,0.62379 -6.255171,13.62245 -6.882304,13.8631 -0.565926,0.21717 -0.696175,0.20442 -1.259064,-0.12322 z m 10.180899,-0.0274 c -0.45195,-0.45195 -0.45195,-13.72972 0,-14.18167 0.46557,-0.46557 5.35704,-0.41099 7.00417,0.0781 1.69267,0.50267 3.60714,2.16986 4.48816,3.90847 0.94202,1.85899 0.94202,4.34944 0,6.20843 -0.88102,1.7386 -2.79549,3.4058 -4.48816,3.90847 -1.64713,0.48914 -6.5386,0.54372 -7.00417,0.0781 z m 7.79446,-3.00513 c 1.22481,-0.97522 2.20679,-2.79328 2.20679,-4.08571 0,-1.27919 -0.97851,-3.10793 -2.16994,-4.0554 l -0.9793,-0.77878 -2.3157,-0.21107 c -1.27364,-0.11609 -2.41053,-0.15246 -2.52642,-0.0808 -0.1159,0.0716 -0.21073,2.39688 -0.21073,5.16724 v 5.03701 l 2.48957,-0.0917 2.48958,-0.0917 z m 4.97659,2.78426 -0.48722,-0.53837 3.34775,-6.7304 3.34775,-6.73041 0.6944,-0.17428 c 0.49835,-0.12508 0.83034,-0.0337 1.17585,0.32346 0.39942,0.41295 5.45601,10.16776 6.52808,12.59352 l 0.31763,0.71869 -0.46292,0.57169 c -0.95411,1.17827 -1.45183,0.58145 -4.34126,-5.20558 -1.48357,-2.97135 -2.77662,-5.40245 -2.87343,-5.40245 -0.0968,0 -1.34807,2.34273 -2.78057,5.20607 -1.43251,2.86334 -2.76214,5.36365 -2.95473,5.55625 -0.49269,0.49269 -0.94626,0.43621 -1.51133,-0.18819 z m 16.82585,0.16135 c -0.22358,-0.26939 -0.28947,-1.83655 -0.23084,-5.4901 l 0.0821,-5.11309 0.73928,-1.13771 c 0.4066,-0.62574 1.28526,-1.48396 1.95259,-1.90717 3.13206,-1.98629 7.28974,-0.84845 8.93045,2.44403 l 0.68081,1.36621 v 4.81044 c 0,5.22355 -0.11056,5.63324 -1.43076,5.30189 l -0.64387,-0.1616 -0.0872,-4.82888 -0.0872,-4.82888 -0.48535,-0.79375 c -0.75117,-1.22846 -1.71626,-1.80596 -3.20037,-1.91507 -1.82893,-0.13445 -3.01531,0.50349 -3.78876,2.03728 l -0.59531,1.18054 v 4.38894 c 0,4.506 -0.11122,5.02394 -1.07886,5.02394 -0.24411,0 -0.58465,-0.16966 -0.75674,-0.37702 z m 22.578357,-0.25673 c -2.831087,-1.31825 -4.379727,-3.72199 -4.383267,-6.80356 -0.003,-2.33006 0.77616,-4.12604 2.43675,-5.61905 2.892827,-2.60091 7.023077,-2.65962 9.884927,-0.14053 1.80338,1.5874 2.62011,3.34587 2.62706,5.65626 0.009,3.10951 -1.36407,5.35986 -4.10813,6.73109 -2.11631,1.05753 -4.42852,1.12047 -6.45734,0.17579 z m 5.91038,-1.84599 c 1.0583,-0.55055 1.81683,-1.44889 2.46979,-2.92501 1.09135,-2.46719 0.0699,-5.5424 -2.30271,-6.93287 -5.07641,-2.97498 -10.662387,2.33022 -8.010637,7.60798 1.357927,2.70266 4.977477,3.74092 7.843557,2.2499 z m 8.66646,1.98629 c -1.09185,-0.49601 -2.77585,-2.17655 -2.77585,-2.77014 0,-0.48039 0.55733,-0.96975 1.10445,-0.96975 0.25821,0 0.64587,0.34114 0.86147,0.75808 0.52374,1.01279 1.89905,1.62317 3.65733,1.62317 2.44986,0 4.16936,-1.66422 3.41963,-3.30969 -0.35626,-0.78189 -2.15806,-1.70207 -3.35434,-1.71305 -2.35882,-0.0217 -4.68204,-1.64393 -5.03295,-3.51444 -0.26655,-1.42081 0.60964,-3.08791 2.05641,-3.91268 1.66914,-0.95155 4.19572,-0.91632 5.70046,0.0795 1.71268,1.1334 2.32351,2.79174 1.1887,3.22721 -0.26663,0.10231 -0.74972,-0.2057 -1.3686,-0.87262 -1.50527,-1.62208 -3.7593,-1.79363 -5.1602,-0.39272 -1.5975,1.5975 -0.22178,3.25402 3.00566,3.61914 2.13002,0.24097 3.67777,1.13427 4.43994,2.56255 1.12891,2.11555 0.33131,4.21011 -2.06572,5.42478 -1.61136,0.81654 -4.07896,0.8864 -5.67639,0.1607 z"
       id="path865" />
  </g>
</svg>
