<?xml version="1.0" encoding="UTF-8" standalone="no"?>
<svg
   xmlns:dc="http://purl.org/dc/elements/1.1/"
   xmlns:cc="http://creativecommons.org/ns#"
   xmlns:rdf="http://www.w3.org/1999/02/22-rdf-syntax-ns#"
   xmlns:svg="http://www.w3.org/2000/svg"
   xmlns="http://www.w3.org/2000/svg"
   width="1024"
   height="1024"
   viewBox="0 0 270.93333 270.93334"
   version="1.1"
   id="svg8">
  <defs
     id="defs2" />
  <metadata
     id="metadata5">
    <rdf:RDF>
      <cc:Work
         rdf:about="">
        <dc:format>image/svg+xml</dc:format>
        <dc:type
           rdf:resource="http://purl.org/dc/dcmitype/StillImage" />
        <dc:title></dc:title>
      </cc:Work>
    </rdf:RDF>
  </metadata>
  <g
     id="layer1">
    <path
       style="fill:#000000;stroke-width:0.42443"
       d="m 17.60117,233.13411 c -2.401048,-1.11167 -4.055247,-3.04957 -4.68919,-5.49349 -0.690018,-2.66012 -0.268344,-4.67107 1.673985,-7.98328 1.472505,-2.51103 29.220563,-50.62299 34.845587,-60.41825 1.675664,-2.91794 9.10898,-15.81 16.518414,-28.64902 7.409495,-12.83898 14.931429,-25.87431 16.715389,-28.96735 1.784009,-3.093045 3.370358,-5.623685 3.525208,-5.623685 0.1549,0 1.569104,2.24415 3.14272,4.987045 5.659673,9.86494 9.183377,15.98129 23.534857,40.8514 13.47878,23.35775 26.26075,45.4783 35.14035,60.81392 1.99821,3.45107 4.26852,6.83261 5.04518,7.51447 2.84936,2.50181 7.11634,2.71802 10.15203,0.51448 1.63157,-1.18431 2.77798,-3.058 15.56336,-25.43662 3.09821,-5.42281 5.72855,-9.85612 5.84531,-9.85181 0.1168,0.004 4.22306,6.98901 9.12522,15.52146 4.90217,8.53249 11.06168,19.25364 13.68787,23.8248 4.45832,7.7603 4.77484,8.46222 4.77484,10.58956 0,3.67099 -1.89711,6.57765 -5.19142,7.95411 -1.40307,0.58626 -11.58403,0.65594 -94.64208,0.64762 -89.684727,-0.01 -93.131658,-0.0401 -94.76763,-0.79536 z m 138.95721,-41.75328 c -0.84103,-1.4541 -5.87854,-10.18807 -11.19453,-19.40884 -5.31593,-9.22073 -12.10237,-20.96683 -15.08091,-26.10245 -2.97855,-5.13556 -8.27283,-14.30325 -11.7651,-20.37263 C 100.1399,93.556975 94.503642,83.856715 94.061499,83.406205 c -0.368953,-0.37598 -1.362771,1.04058 -4.093677,5.83592 -1.983474,3.48285 -3.702416,6.32595 -3.819869,6.31793 -0.117303,-0.01 -1.535668,-2.34767 -3.151543,-5.19929 C 81.380485,87.509205 75.911204,78.013815 70.842407,69.25995 58.672974,48.243298 58.558679,48.021575 58.558679,45.439704 c 0,-3.486207 1.965528,-6.431668 5.191403,-7.77955 1.402775,-0.586115 11.561673,-0.656897 94.270728,-0.656897 50.98418,0 93.32738,0.125825 94.09607,0.279722 2.04969,0.41006 5.29934,3.722869 5.91352,6.028627 0.68613,2.575955 0.25115,4.494212 -1.84812,8.152514 -0.99522,1.734281 -5.12108,8.883001 -9.16859,15.886095 -4.04746,7.003095 -8.72825,15.12032 -10.40178,18.03826 -1.67352,2.91799 -5.15256,8.93428 -7.73122,13.369541 -2.57871,4.435314 -7.16231,12.361544 -10.18582,17.613864 -3.02346,5.25232 -7.37826,12.79656 -9.6773,16.76497 -2.29899,3.96845 -6.49624,11.2262 -9.32715,16.12837 -2.83097,4.90216 -7.32578,12.68512 -9.98856,17.29549 -2.66273,4.61036 -4.95525,8.3825 -5.09446,8.3825 -0.13936,0 -1.85499,-2.7694 -3.8129,-6.15425 -1.95796,-3.38479 -3.66668,-6.1542 -3.79721,-6.1542 -0.13034,0 -1.91626,2.91263 -3.96821,6.47253 -2.052,3.55989 -6.09309,10.57326 -8.98025,15.58526 -2.88716,5.01195 -5.40953,9.16208 -5.60533,9.22253 -0.19601,0.0602 -1.04415,-1.07994 -1.88512,-2.53405 z m 23.23518,-34.16502 c 2.10298,-3.67504 16.54595,-28.73179 28.80282,-49.96936 3.53609,-6.12698 7.80331,-13.523445 20.56879,-35.652119 6.59855,-11.438404 12.08182,-20.940354 12.18509,-21.115407 0.10326,-0.174952 -37.18312,-0.318322 -82.85874,-0.318322 -78.916851,0 -83.032384,0.03509 -82.763289,0.742769 0.155903,0.408556 3.93246,7.045504 8.392634,14.748907 4.460174,7.703404 8.411734,14.530247 8.781339,15.170697 0.369455,0.64046 0.778111,1.16571 0.907946,1.16717 0.129835,0.001 1.906025,-2.90997 3.94715,-6.46987 8.81472,-15.373622 8.46241,-14.863353 11.09632,-16.072828 3.44284,-1.580985 7.98368,-0.574434 10.07222,2.232668 0.58341,0.784076 4.0805,6.677904 7.77138,13.097441 10.02435,17.435149 23.58835,40.970764 27.76294,48.172774 2.02964,3.50154 6.71329,11.61877 10.40814,18.0383 3.69484,6.41949 7.72806,13.39075 8.96275,15.49168 1.23464,2.10093 2.37198,4.15408 2.52738,4.56264 0.15541,0.40855 0.40555,0.73946 0.55549,0.7355 0.14989,-0.004 1.44594,-2.05717 2.87964,-4.56264 z"
       id="path877" />
  </g>
</svg>
