<?xml version="1.0" standalone="no"?>
<!DOCTYPE svg PUBLIC "-//W3C//DTD SVG 20010904//EN"
 "http://www.w3.org/TR/2001/REC-SVG-20010904/DTD/svg10.dtd">
<svg version="1.0" xmlns="http://www.w3.org/2000/svg"
 width="900.000000pt" height="900.000000pt" viewBox="0 0 900.000000 900.000000"
 preserveAspectRatio="xMidYMid meet">
<metadata>
Created by potrace 1.14, written by Peter Selinger 2001-2017
</metadata>
<g transform="translate(0.000000,900.000000) scale(0.100000,-0.100000)"
fill="#000000" stroke="none">
<path d="M0 4500 l0 -4500 4500 0 4500 0 0 4500 0 4500 -4500 0 -4500 0 0
-4500z m7255 2309 c51 -14 122 -87 131 -135 17 -91 11 -105 -261 -574 -142
-245 -393 -679 -558 -965 -166 -286 -348 -601 -405 -700 -57 -99 -116 -201
-131 -227 -15 -27 -30 -46 -33 -43 -2 3 -5 -1 -5 -8 0 -8 -55 -110 -123 -228
-68 -118 -142 -247 -164 -286 -23 -40 -43 -73 -46 -73 -3 0 -43 68 -90 150
-47 83 -87 150 -90 150 -3 -1 -67 -110 -144 -243 -312 -545 -290 -508 -304
-489 -7 9 -58 96 -114 192 -55 96 -124 216 -153 265 -29 50 -151 261 -272 470
-430 745 -648 1122 -728 1260 -45 77 -117 202 -160 278 -44 75 -82 137 -85
137 -4 0 -24 -31 -45 -69 -22 -38 -44 -67 -49 -64 -5 3 -6 1 -3 -4 7 -11 -70
-153 -82 -153 -6 0 -92 146 -343 583 -59 104 -105 194 -102 199 4 6 3 8 -3 5
-5 -3 -52 67 -104 156 -93 160 -94 163 -94 228 0 55 5 72 27 107 27 40 65 66
118 83 42 12 4369 11 4415 -2z m-3795 -1580 c126 -220 116 -201 488 -847 144
-250 259 -459 255 -465 -3 -7 -2 -9 2 -4 5 4 35 -39 68 -95 33 -57 84 -144
114 -195 33 -55 52 -98 47 -105 -4 -7 -4 -10 1 -6 5 5 17 -7 28 -25 50 -81
247 -427 247 -432 0 -3 -5 -3 -12 1 -7 4 -8 3 -4 -5 4 -6 11 -9 15 -7 12 7
113 -172 105 -186 -4 -7 -4 -10 0 -6 5 4 27 -21 50 -55 49 -74 104 -107 179
-107 87 0 150 46 202 151 16 30 30 47 37 43 7 -4 8 -3 4 4 -4 7 5 32 20 57 22
39 28 44 42 33 13 -11 14 -11 3 7 -11 17 -8 29 26 85 22 36 93 158 159 273 65
114 121 207 124 207 3 0 32 -46 64 -103 81 -138 227 -392 258 -447 14 -25 85
-148 158 -275 167 -288 174 -304 167 -367 -8 -66 -39 -112 -95 -146 l-47 -27
-1400 -3 c-770 -2 -1654 0 -1965 5 -311 4 -500 9 -421 11 l144 3 -7 61 c-3 33
-6 87 -6 119 0 55 -1 59 -24 59 -21 0 -24 6 -29 52 -6 62 -25 108 -44 108 -7
0 -13 4 -13 9 0 5 -9 12 -19 16 -10 3 -22 17 -25 30 -4 14 -13 25 -21 25 -11
0 -15 11 -15 36 0 27 -5 37 -19 41 -11 3 -21 13 -24 24 -3 10 -12 19 -21 19
-9 0 -16 8 -16 20 0 11 -4 20 -8 20 -5 0 -14 11 -20 25 -7 14 -20 25 -31 25
-10 0 -21 7 -25 15 -3 9 -18 15 -38 15 -25 0 -40 8 -58 30 -14 17 -28 30 -32
30 -16 0 -37 -32 -31 -47 4 -11 2 -14 -5 -9 -11 7 -10 46 3 79 4 10 3 17 -5
17 -6 0 -9 -4 -5 -9 3 -5 1 -12 -4 -15 -5 -4 -8 1 -7 10 1 8 8 19 15 23 10 6
9 10 -4 14 -9 4 -13 3 -10 -3 3 -6 1 -10 -4 -10 -6 0 -11 -6 -11 -14 0 -8 -5
-16 -11 -18 -13 -4 -20 -68 -8 -68 4 0 9 5 11 12 3 8 6 7 10 -4 5 -11 0 -15
-15 -14 -35 3 -49 -12 -35 -38 11 -21 11 -21 -9 -1 -14 14 -17 22 -9 27 6 4 8
8 4 8 -4 0 17 42 46 94 66 116 86 145 86 126 1 -12 3 -11 11 2 5 10 9 24 7 32
-4 19 94 186 105 179 6 -3 7 -1 3 5 -8 13 83 174 94 167 4 -3 13 2 20 10 11
13 10 14 -4 9 -14 -5 -12 4 11 44 15 27 32 48 37 45 5 -4 6 -1 2 5 -9 15 18
55 29 44 5 -4 5 -2 1 5 -8 14 28 76 38 66 4 -4 4 1 0 11 -6 15 -4 17 6 11 8
-5 11 -4 6 3 -9 15 63 134 76 126 7 -4 8 -2 4 4 -9 15 45 113 58 105 5 -3 6
-1 2 5 -8 14 28 74 39 64 5 -4 5 -2 2 4 -4 6 59 126 140 265 80 140 213 371
295 514 83 143 189 328 237 412 47 84 88 153 91 153 3 0 57 -90 120 -201z
m-1555 -2377 c-1 -1 -11 -4 -23 -7 -14 -2 -19 1 -17 13 2 9 4 21 4 26 1 5 9 1
20 -10 10 -10 17 -20 16 -22z m-63 -39 c-5 -10 -8 -24 -6 -31 1 -7 0 -8 -3 -2
-2 5 -9 8 -14 5 -5 -3 -1 7 9 24 18 32 30 35 14 4z m63 -8 c0 -10 -6 -20 -12
-22 -8 -3 -13 5 -13 22 0 17 5 25 13 23 6 -3 12 -13 12 -23z m-81 -41 c21 -8
20 -30 -1 -39 -17 -6 -17 -7 0 -20 16 -12 15 -13 -10 -18 -45 -8 -56 4 -32 38
12 17 19 22 15 13 -6 -21 9 -25 17 -4 3 7 0 19 -6 25 -12 12 -7 14 17 5z m-68
-99 c-3 -8 -1 -15 4 -15 6 0 10 -8 10 -17 -1 -17 -1 -17 -14 -1 -7 10 -16 14
-21 10 -4 -4 -1 3 6 16 16 25 24 29 15 7z m94 0 c15 -18 6 -45 -14 -45 -14 0
-26 21 -26 46 0 18 24 18 40 -1z m-105 -46 c12 -18 13 -59 2 -66 -6 -4 -7 -1
-2 7 5 8 4 11 -3 6 -15 -9 -3 -38 12 -29 6 3 7 2 3 -2 -16 -18 -37 -13 -37 8
0 17 -2 19 -9 8 -5 -7 -14 -10 -20 -7 -6 4 -11 2 -11 -3 0 -6 6 -11 12 -11 7
0 2 -7 -10 -16 -15 -10 -20 -20 -14 -27 11 -16 13 -57 2 -57 -5 0 -14 8 -19
18 -6 9 -11 12 -11 5 0 -20 12 -43 20 -38 4 3 10 -2 14 -10 3 -8 2 -15 -3 -15
-4 0 -7 -23 -7 -52 1 -36 6 -53 16 -56 8 -3 18 -10 23 -16 5 -8 10 -6 17 4 6
9 10 10 10 3 0 -18 -19 -26 -33 -14 -7 5 -19 6 -26 2 -9 -6 -7 -10 9 -14 13
-3 19 -10 15 -17 -5 -8 -13 -6 -26 6 -15 14 -17 20 -6 32 10 13 9 15 -5 9 -21
-8 -41 23 -31 49 4 11 3 15 -5 10 -8 -5 -11 7 -10 39 0 25 4 48 9 51 4 2 6 11
2 19 -3 8 0 15 7 15 6 0 9 4 6 8 -3 5 2 18 12 28 9 11 18 26 20 34 2 8 10 20
17 26 8 6 11 15 7 19 -4 5 -1 5 7 0 9 -5 12 -3 9 6 -6 16 9 49 22 49 5 0 12
-5 15 -11z m155 -9 c0 -5 -7 -10 -15 -10 -8 0 -15 5 -15 10 0 6 7 10 15 10 8
0 15 -4 15 -10z m-157 -378 c-10 -9 -14 -14 -9 -9 15 11 26 9 24 -4 -2 -7 12
-16 31 -21 42 -12 37 -17 -11 -10 -21 2 -35 8 -32 14 3 5 0 9 -7 7 -39 -5 -43
1 -19 25 14 13 28 21 33 19 4 -2 -1 -12 -10 -21z"/>
<path d="M3104 6468 c13 -24 66 -115 116 -203 51 -88 138 -240 194 -337 56
-98 103 -177 106 -177 3 0 68 111 146 247 157 275 177 297 273 309 42 5 60 1
105 -21 62 -31 55 -21 268 -391 64 -110 125 -217 138 -237 12 -21 18 -43 14
-49 -4 -7 -3 -9 3 -6 9 6 93 -136 713 -1213 122 -212 238 -413 258 -447 20
-35 39 -63 42 -63 7 0 15 14 148 245 63 110 207 360 320 555 113 195 257 445
320 555 63 110 154 268 202 350 48 83 149 258 225 390 76 132 176 304 222 383
46 79 83 145 83 147 0 3 -882 5 -1960 5 l-1961 0 25 -42z"/>
<path d="M2333 3655 c0 -8 4 -12 9 -9 5 3 6 10 3 15 -9 13 -12 11 -12 -6z"/>
<path d="M2245 3511 c3 -5 0 -11 -7 -13 -7 -3 -8 -7 -3 -10 6 -3 15 0 22 7 10
10 9 14 -3 19 -8 3 -13 2 -9 -3z"/>
<path d="M2285 3510 c-3 -5 -1 -10 4 -10 6 0 11 5 11 10 0 6 -2 10 -4 10 -3 0
-8 -4 -11 -10z"/>
<path d="M2216 3463 c-6 -14 -5 -15 5 -6 7 7 10 15 7 18 -3 3 -9 -2 -12 -12z"/>
<path d="M2219 3432 c11 -8 11 -10 0 -14 -10 -3 -9 -6 3 -10 11 -5 15 -2 14
10 -2 9 -9 18 -17 20 -12 3 -12 2 0 -6z"/>
<path d="M2186 3415 c-3 -8 -1 -15 4 -15 6 0 10 7 10 15 0 8 -2 15 -4 15 -2 0
-6 -7 -10 -15z"/>
<path d="M2145 3299 c-1 -22 2 -33 7 -26 10 15 10 54 1 60 -5 3 -8 -12 -8 -34z"/>
<path d="M2105 3274 c-9 -15 -12 -23 -6 -20 11 7 35 46 28 46 -3 0 -12 -12
-22 -26z"/>
<path d="M2069 3208 c-5 -12 -5 -76 0 -86 4 -7 7 10 6 38 0 43 -2 57 -6 48z"/>
<path d="M2016 3112 c-3 -5 1 -9 9 -9 8 0 12 4 9 9 -3 4 -7 8 -9 8 -2 0 -6 -4
-9 -8z"/>
<path d="M2050 3108 c0 -9 -6 -18 -12 -21 -7 -3 -3 -4 10 -4 24 1 26 5 12 27
-8 13 -10 13 -10 -2z"/>
<path d="M2240 3010 c0 -5 7 -10 16 -10 8 0 12 5 9 10 -3 6 -10 10 -16 10 -5
0 -9 -4 -9 -10z"/>
<path d="M2640 2530 c0 -5 7 -10 16 -10 8 0 12 5 9 10 -3 6 -10 10 -16 10 -5
0 -9 -4 -9 -10z"/>
<path d="M1780 2700 c0 -5 5 -10 10 -10 6 0 10 5 10 10 0 6 -4 10 -10 10 -5 0
-10 -4 -10 -10z"/>
<path d="M1724 2605 c-3 -8 -4 -20 -1 -27 3 -8 6 -6 6 5 1 10 5 15 11 12 6 -3
7 1 4 9 -8 20 -13 20 -20 1z"/>
<path d="M1646 2482 c-3 -6 -1 -14 5 -17 15 -10 25 3 12 16 -7 7 -13 7 -17 1z"/>
<path d="M1627 2407 c-3 -9 -2 -17 3 -17 6 0 10 -5 10 -11 0 -5 -4 -7 -10 -4
-5 3 -10 -2 -10 -12 0 -16 1 -16 17 -1 13 13 14 22 6 39 -8 20 -10 20 -16 6z"/>
<path d="M1640 2341 c0 -5 5 -13 10 -16 6 -3 10 -2 10 4 0 5 -4 13 -10 16 -5
3 -10 2 -10 -4z"/>
<path d="M1636 2295 c4 -8 8 -15 10 -15 2 0 4 7 4 15 0 8 -4 15 -10 15 -5 0
-7 -7 -4 -15z"/>
</g>
</svg>
